# xmcd CD database file
#
# Track frame offsets:
#	150
#	10333
#	21771
#	30258
#	41273
#	49783
#	69304
#	85530
#	101459
#	112380
#	124785
#	133981
#	141219
#	154581
#	165049
#	173318
#
# Disc length: 2639 seconds
#
# Revision: 3
# Processed by: cddbd v1.5.2PL0 Copyright (c) Steve Scherf et al.
# Submitted via: CDex 1.51
#
DISCID=ba0a4d10
DTITLE=Ella Fitzgerald - Everyone's Wrong But Me  [CD 10-10]
DYEAR=1900
DGENRE=Jazz
TTITLE0=Heat Wave
TTITLE1=Love That Boy
TTITLE2=It's Too Soon To Know
TTITLE3=Ool-Ya-Koo
TTITLE4=Old Mother Hubbard
TTITLE5=Mr. Paganini
TTITLE6=There's A Small Hotel
TTITLE7=How High The Moon ¿
TTITLE8=Robbin's Nest
TTITLE9=As You Desire Me
TTITLE10=Thou Swell
TTITLE11=Someone Like You
TTITLE12=Again
TTITLE13=In A Mellotone
TTITLE14=Lemon Drop
TTITLE15=Flying Home
EXTD=
EXTT0=
EXTT1=
EXTT2=
EXTT3=
EXTT4=
EXTT5=
EXTT6=
EXTT7=
EXTT8=
EXTT9=
EXTT10=
EXTT11=
EXTT12=
EXTT13=
EXTT14=
EXTT15=
PLAYORDER=
